<svg xmlns="http://www.w3.org/2000/svg" version="1.1" xmlns:xlink="http://www.w3.org/1999/xlink" xmlns:svgjs="http://svgjs.dev/svgjs" width="100%" height="100%" viewBox="0 0 1000 600"><rect width="1000" height="600" x="0" y="0" fill="#000000"/><g><rect width="333.3333333333333" height="333.3333333333333" rx="13.333333333333334" ry="13.333333333333334" y="77.77777587042934" fill="#000000" transform="matrix(2.2499999313354513,0,0,2.2499999313354517,0,-249.99999084472722)" x="55.55555725097656"/><path d="M187.7134805362224 319.44444995456274L187.7134805362224 169.44444804880226L210.44453827714528 169.44444804880226Q215.64020861792767 169.44444804880226 221.83504633193743 170.11888602573072Q228.0049048616165 170.76834481832856 234.1497842069649 173.0914089610822Q240.31964273664397 175.41447310383586 245.4403755244343 180.43528915430346Q250.5860874965553 185.43112602044036 253.6585271692295 194.0489446145265Q256.73096684190375 202.64178402428198 256.73096684190375 215.90573090387542L256.73096684190375 215.90573090387542L256.73096684190375 221.1763387976499Q256.73096684190375 235.58932815645485 253.88333982820566 245.156355755107Q251.01073363017696 254.7233833537592 246.28966779167757 260.4685957498166Q241.5436227688475 266.2387873302048 235.69849363546734 269.0864143439028Q229.85336450208715 271.9340413576008 223.88333944705357 272.8582711778362Q217.91331439201997 273.78250099807144 212.64270649824553 273.78250099807144L212.64270649824553 273.78250099807144L210.44453827714528 273.78250099807144L210.44453827714528 319.44444995456274L187.7134805362224 319.44444995456274ZM210.44453827714528 257.09640586517423L211.59358075635677 257.09640586517423Q223.9832561843763 257.09640586517423 228.67934283854498 249.72754648762228Q233.3754294927137 242.33370792573967 233.3754294927137 225.39782094953554L233.3754294927137 225.39782094953554L233.3754294927137 211.85910304230455Q233.3754294927137 198.52021860971902 228.92913468185185 192.20048497405585Q224.50781905532068 185.88075133839268 211.59358075635677 185.88075133839268L211.59358075635677 185.88075133839268L210.44453827714528 185.88075133839268L210.44453827714528 257.09640586517423Z " fill="#ffffff" transform="matrix(2.2499999313354513,0,0,2.2499999313354517,0,-249.99999084472722)"/><path d="MNaN 244.4444461398655 " fill="#013dc4" transform="matrix(2.2499999313354513,0,0,2.2499999313354517,0,-249.99999084472722)"/></g></svg>